Coordinates
version=1
nRows=8
nColumns=40
inDegrees=yes

Units are S.I. units (second, meters, Newtons, ...)
Angles are in degrees.

endheader
time	pelvis_tilt	pelvis_list	pelvis_rotation	pelvis_tx	pelvis_ty	pelvis_tz	hip_flexion_r	hip_adduction_r	hip_rotation_r	knee_angle_r	knee_angle_r_beta	ankle_angle_r	subtalar_angle_r	mtp_angle_r	hip_flexion_l	hip_adduction_l	hip_rotation_l	knee_angle_l	knee_angle_l_beta	ankle_angle_l	subtalar_angle_l	mtp_angle_l	lumbar_extension	lumbar_bending	lumbar_rotation	arm_flex_r	arm_add_r	arm_rot_r	elbow_flex_r	pro_sup_r	wrist_flex_r	wrist_dev_r	arm_flex_l	arm_add_l	arm_rot_l	elbow_flex_l	pro_sup_l	wrist_flex_l	wrist_dev_l
      1.82000000	      3.22288216	     -2.83596438	     -2.59247045	     -0.27111295	      0.88948220	     -1.43201263	     -8.95602620	      3.95174626	    -14.39744912	    -21.36124689	     -0.37282409	     14.45747217	      3.78254151	     -6.56207999	     21.23953400	      3.18456948	     13.96725620	    -14.63910932	     -0.25550066	      0.32828775	     -1.36191451	     -9.12596153	    -12.76931755	      3.36550101	      6.67494600	     15.13975001	    -10.58438233	     16.88033634	     18.82972375	     89.95437384	      0.00000000	      0.00000000	     -1.36946821	      6.95110313	    -13.21914162	     21.07718958	     89.95437384	      0.00000000	      0.00000000
      1.83000000	      2.98989321	     -2.82524374	     -2.78390522	     -0.26326099	      0.88857763	     -1.43226615	     -9.05532420	      3.79100907	    -14.24077354	    -21.74996187	     -0.37960845	     14.18332175	      3.66988004	     -6.46085926	     21.37721945	      3.20382595	     13.73008076	    -14.85663248	     -0.25929715	      0.26014471	     -1.33920839	     -8.96634999	    -12.53862062	      3.29715766	      6.68388181	     14.95215730	    -10.41685088	     16.85216109	     19.11085176	     89.95437384	      0.00000000	      0.00000000	     -1.62172457	      6.89313415	    -13.16391419	     21.19586186	     89.95437384	      0.00000000	      0.00000000
      1.84000000	      2.90422729	     -2.73316973	     -3.26711755	     -0.25526203	      0.88824923	     -1.43254902	     -9.30714430	      3.48150291	    -13.70682806	    -22.11286308	     -0.38594227	     14.08991682	      3.80783748	     -6.55546668	     20.82616545	      3.08145108	     13.48931937	    -14.34369258	     -0.25034466	      0.00382519	     -1.55808217	     -8.98803467	    -12.46962410	      3.13801133	      7.03176322	     15.01038982	    -10.20501032	     16.97811777	     18.66491965	     89.95437384	      0.00000000	      0.00000000	     -1.55351447	      6.57109564	    -12.89398065	     20.63568566	     89.95437384	      0.00000000	      0.00000000
      1.85000000	      2.63952599	     -2.71377783	     -3.46450018	     -0.24684129	      0.88736699	     -1.43311705	     -9.37089389	      3.28194594	    -13.53754866	    -22.53847858	     -0.39337066	     13.76911768	      3.67096565	     -6.43417367	     20.82392029	      3.02050997	     13.25544153	    -14.80788768	     -0.25844640	     -0.24993841	     -1.43745244	     -8.78238636	    -12.15845311	      3.09479575	      7.01402380	     14.71808610	    -10.10239711	     16.92464311	     18.97966072	     89.95437384	      0.00000000	      0.00000000	     -1.91289280	      6.50397935	    -12.83564729	     20.81840200	     89.95437384	      0.00000000	      0.00000000
      1.86000000	      2.58460286	     -2.55184268	     -3.90612948	     -0.23838709	      0.88714859	     -1.43353509	     -9.69915629	      2.85493352	    -13.18912689	    -22.82888555	     -0.39843922	     13.54785460	      3.75965458	     -6.48211592	     20.48144623	      2.88328506	     13.84114643	    -15.12046005	     -0.26390181	     -2.59019669	     -0.35434798	     -8.36547559	    -12.05985444	      2.86726801	      7.24085391	     14.65261054	     -9.86816126	     16.89860117	     18.63872808	     89.95437384	      0.00000000	      0.00000000	     -1.96459766	      6.30533707	    -12.73344520	     20.45547788	     89.95437384	      0.00000000	      0.00000000
      1.87000000	      2.46520014	     -2.35304636	     -4.15600985	     -0.22990861	      0.88696754	     -1.43416030	     -9.88125886	      2.44454211	    -12.82991519	    -23.25055411	     -0.40579872	     13.25172385	      3.67417114	     -6.43568890	     20.25446562	      2.63942791	     13.72933545	    -15.46146827	     -0.26985353	     -4.24968577	      0.13786793	     -8.04541539	    -11.88842162	      2.61106347	      7.27415891	     14.48697023	     -9.65969818	     16.90283858	     18.52000312	     89.95437384	      0.00000000	      0.00000000	     -2.01786890	      6.17691260	    -12.74595254	     20.14898514	     89.95437384	      0.00000000	      0.00000000
      1.88000000	      2.55487901	     -1.77895961	     -4.49839839	     -0.22113117	      0.88738880	     -1.43496279	    -10.17495134	      1.49687142	    -12.71157002	    -23.86659506	     -0.41655067	     12.75276223	      3.77230760	     -6.67292867	     19.48612153	      1.86214025	     13.53508649	    -15.07263190	     -0.26306705	     -5.49012166	      0.98954586	     -8.38505852	    -11.93111106	      1.92669805	      7.32166093	     14.26075917	     -9.37315933	     16.30061754	     18.51941119	     89.95437384	      0.00000000	      0.00000000	     -2.08225830	      6.10414628	    -12.80594084	     19.96381662	     89.95437384	      0.00000000	      0.00000000
      1.89000000	      2.29612952	     -1.69733972	     -4.53430796	     -0.21258815	      0.88737764	     -1.43563979	    -10.16035433	      1.30904354	    -12.45373343	    -24.36048002	     -0.42517058	     12.35084262	      3.63140814	     -6.53270025	     19.55338056	      1.76212134	     13.29338417	    -15.49801729	     -0.27049143	     -5.51923772	      0.97882140	     -8.20852697	    -11.65237886	      1.80565183	      7.19089039	     13.85557241	     -9.25666091	     16.26226099	     18.80606068	     89.95437384	      0.00000000	      0.00000000	     -2.30126209	      6.12619818	    -12.75824480	     20.17453633	     89.95437384	      0.00000000	      0.00000000
